<svg id="Layer_1" data-name="Layer 1" xmlns="http://www.w3.org/2000/svg" viewBox="0 0 24 24" stroke-width="1.5" width="24" height="24" color="#2196F3"><defs><style>.cls-637b7d2ff95e86b59c579fb8-1{fill:none;stroke:currentColor;stroke-miterlimit:10;}.cls-637b7d2ff95e86b59c579fb8-2{fill:currentColor;}</style></defs><circle class="cls-637b7d2ff95e86b59c579fb8-1" cx="8.15" cy="19.63" r="2.87"></circle><circle class="cls-637b7d2ff95e86b59c579fb8-1" cx="19.63" cy="16.76" r="2.87"></circle><polyline class="cls-637b7d2ff95e86b59c579fb8-1" points="22.5 16.76 22.5 2.41 11.02 5.28 11.02 19.63"></polyline><line class="cls-637b7d2ff95e86b59c579fb8-1" x1="22.5" y1="6.24" x2="11.02" y2="9.11"></line><path class="cls-637b7d2ff95e86b59c579fb8-2" d="M3.9,5.28a1.28,1.28,0,0,0-1.06.57A1.28,1.28,0,0,0,.5,6.56c0,1.91,2.34,2.55,2.34,2.55s2.34-.64,2.34-2.55A1.28,1.28,0,0,0,3.9,5.28Z"></path><path class="cls-637b7d2ff95e86b59c579fb8-2" d="M8.07,10.41a1,1,0,0,0-.87.47,1,1,0,0,0-1.92.58c0,1.56,1.92,2.08,1.92,2.08S9.11,13,9.11,11.46A1,1,0,0,0,8.07,10.41Z"></path><path class="cls-637b7d2ff95e86b59c579fb8-2" d="M8.33.5a.79.79,0,0,0-.66.35.78.78,0,0,0-1.43.43c0,1.18,1.43,1.57,1.43,1.57s1.44-.39,1.44-1.57A.78.78,0,0,0,8.33.5Z"></path></svg>