<svg id="Layer_1" data-name="Layer 1" xmlns="http://www.w3.org/2000/svg" viewBox="0 0 24 24" stroke-width="1.5" width="24" height="24" color="#2196F3"><defs><style>.cls-637b88e7f95e86b59c57a20a-1{fill:none;stroke:currentColor;stroke-miterlimit:10;}.cls-637b88e7f95e86b59c57a20a-2{fill:currentColor;}</style></defs><path class="cls-637b88e7f95e86b59c57a20a-1" d="M9.14,5.08c0,2.39-3.82,6-3.82,6S1.5,7.47,1.5,5.08A3.7,3.7,0,0,1,5.32,1.5,3.7,3.7,0,0,1,9.14,5.08Z"></path><circle class="cls-637b88e7f95e86b59c57a20a-2" cx="5.32" cy="5.32" r="0.95"></circle><path class="cls-637b88e7f95e86b59c57a20a-1" d="M22.5,14.62c0,2.39-3.82,6-3.82,6s-3.82-3.58-3.82-6a3.7,3.7,0,0,1,3.82-3.57A3.7,3.7,0,0,1,22.5,14.62Z"></path><circle class="cls-637b88e7f95e86b59c57a20a-2" cx="18.68" cy="14.86" r="0.95"></circle><path class="cls-637b88e7f95e86b59c57a20a-1" d="M4.36,13h4.3a2.39,2.39,0,0,1,2.39,2.39h0a2.39,2.39,0,0,1-2.39,2.39H3.89A2.39,2.39,0,0,0,1.5,20.11h0A2.39,2.39,0,0,0,3.89,22.5H19.64"></path></svg>